# xmcd
#
# Track frame offsets: 
#        300
#        51766
#        57804
#        80220
#        100525
#        131851
#        152807
#        171490
#        206786
#
# Disc length: 3088 seconds
#
# Revision: 3
# Processed by: cddbd v1.5.2PL0 Copyright (c) Steve Scherf et al.
# Submitted via: ExactAudioCopy v1.0b1
#
DISCID=810c0c09
DTITLE=Bernard Allison - Energized - Live in Europe CD2
DYEAR=2005
DGENRE=Modern Electric Blues
TTITLE0=The Walk
TTITLE1=Step Down
TTITLE2=Talking Guitar
TTITLE3=Snake Bit Again
TTITLE4=A Change Must Come
TTITLE5=Too Cool
TTITLE6=Wah Wah Action
TTITLE7=Don't Be Confused
TTITLE8=I Just Came Back To Say Goodbye
EXTD=
EXTT0=
EXTT1=
EXTT2=
EXTT3=
EXTT4=
EXTT5=
EXTT6=
EXTT7=
EXTT8=
PLAYORDER=
